<mxfile host="app.diagrams.net" modified="2023-06-08T10:31:20.742Z" agent="Mozilla/5.0 (Windows NT 10.0; Win64; x64) AppleWebKit/537.36 (KHTML, like Gecko) Chrome/114.0.0.0 Safari/537.36" etag="IRVB9HbK9duUJ1ysaL4I" version="21.3.6" type="github">
  <diagram name="페이지-1" id="YFgWT-JXlxmy7XQ4LBd5">
    <mxGraphModel dx="1339" dy="707" grid="1" gridSize="10" guides="1" tooltips="1" connect="1" arrows="1" fold="1" page="1" pageScale="1" pageWidth="827" pageHeight="1169" math="0" shadow="0">
      <root>
        <mxCell id="0" />
        <mxCell id="1" parent="0" />
        <mxCell id="unVaKgMmHh477C6XNQjO-1" style="edgeStyle=orthogonalEdgeStyle;rounded=0;orthogonalLoop=1;jettySize=auto;html=1;exitX=0.5;exitY=1;exitDx=0;exitDy=0;exitPerimeter=0;entryX=0.5;entryY=0;entryDx=0;entryDy=0;" edge="1" parent="1" source="unVaKgMmHh477C6XNQjO-2" target="unVaKgMmHh477C6XNQjO-5">
          <mxGeometry relative="1" as="geometry" />
        </mxCell>
        <mxCell id="unVaKgMmHh477C6XNQjO-2" value="Start" style="strokeWidth=2;html=1;shape=mxgraph.flowchart.start_1;whiteSpace=wrap;" vertex="1" parent="1">
          <mxGeometry x="90" y="80" width="100" height="40" as="geometry" />
        </mxCell>
        <mxCell id="unVaKgMmHh477C6XNQjO-3" value="Initialize" style="text;align=center;fontStyle=1;verticalAlign=middle;spacingLeft=3;spacingRight=3;strokeColor=none;rotatable=0;points=[[0,0.5],[1,0.5]];portConstraint=eastwest;html=1;" vertex="1" parent="1">
          <mxGeometry x="100" y="50" width="80" height="26" as="geometry" />
        </mxCell>
        <mxCell id="unVaKgMmHh477C6XNQjO-4" style="edgeStyle=orthogonalEdgeStyle;rounded=0;orthogonalLoop=1;jettySize=auto;html=1;exitX=0.5;exitY=1;exitDx=0;exitDy=0;entryX=0.5;entryY=0;entryDx=0;entryDy=0;" edge="1" parent="1" source="unVaKgMmHh477C6XNQjO-5" target="unVaKgMmHh477C6XNQjO-7">
          <mxGeometry relative="1" as="geometry" />
        </mxCell>
        <mxCell id="unVaKgMmHh477C6XNQjO-5" value="IntQueue* q;&lt;br&gt;int max;" style="shape=parallelogram;perimeter=parallelogramPerimeter;whiteSpace=wrap;html=1;fixedSize=1;" vertex="1" parent="1">
          <mxGeometry x="80" y="150" width="120" height="50" as="geometry" />
        </mxCell>
        <mxCell id="unVaKgMmHh477C6XNQjO-6" style="edgeStyle=orthogonalEdgeStyle;rounded=0;orthogonalLoop=1;jettySize=auto;html=1;exitX=0.5;exitY=1;exitDx=0;exitDy=0;entryX=0.5;entryY=0;entryDx=0;entryDy=0;" edge="1" parent="1" source="unVaKgMmHh477C6XNQjO-7" target="unVaKgMmHh477C6XNQjO-9">
          <mxGeometry relative="1" as="geometry" />
        </mxCell>
        <mxCell id="unVaKgMmHh477C6XNQjO-7" value="&lt;div&gt;q-&amp;gt;max = max;&lt;/div&gt;&lt;div&gt;q-&amp;gt;num = 0;&lt;span style=&quot;&quot;&gt;&lt;/span&gt;&lt;/div&gt;&lt;div&gt;&lt;span style=&quot;&quot;&gt;&lt;span style=&quot;&quot;&gt;&lt;span style=&quot;white-space: pre;&quot;&gt;&amp;nbsp;&amp;nbsp;&amp;nbsp;&amp;nbsp;&lt;/span&gt;&lt;/span&gt;q-&amp;gt;front = 0;&lt;/span&gt;&lt;/div&gt;&lt;div&gt;&lt;span style=&quot;&quot;&gt;&lt;span style=&quot;&quot;&gt;&lt;span style=&quot;white-space: pre;&quot;&gt;&amp;nbsp;&amp;nbsp;&amp;nbsp;&amp;nbsp;&lt;/span&gt;&lt;/span&gt;q-&amp;gt;rear = 0;&lt;/span&gt;&lt;/div&gt;" style="rounded=0;whiteSpace=wrap;html=1;" vertex="1" parent="1">
          <mxGeometry x="80" y="220" width="120" height="60" as="geometry" />
        </mxCell>
        <mxCell id="unVaKgMmHh477C6XNQjO-8" style="edgeStyle=orthogonalEdgeStyle;rounded=0;orthogonalLoop=1;jettySize=auto;html=1;exitX=0.5;exitY=1;exitDx=0;exitDy=0;" edge="1" parent="1" source="unVaKgMmHh477C6XNQjO-9" target="unVaKgMmHh477C6XNQjO-12">
          <mxGeometry relative="1" as="geometry" />
        </mxCell>
        <mxCell id="unVaKgMmHh477C6XNQjO-9" value="q-&amp;gt;que = (int*)calloc(max, sizeof(int));" style="rounded=0;whiteSpace=wrap;html=1;" vertex="1" parent="1">
          <mxGeometry x="30" y="310" width="220" height="45" as="geometry" />
        </mxCell>
        <mxCell id="unVaKgMmHh477C6XNQjO-10" value="Y" style="edgeStyle=orthogonalEdgeStyle;rounded=0;orthogonalLoop=1;jettySize=auto;html=1;exitX=0.5;exitY=1;exitDx=0;exitDy=0;entryX=0.5;entryY=0;entryDx=0;entryDy=0;" edge="1" parent="1" source="unVaKgMmHh477C6XNQjO-12" target="unVaKgMmHh477C6XNQjO-13">
          <mxGeometry relative="1" as="geometry" />
        </mxCell>
        <mxCell id="unVaKgMmHh477C6XNQjO-11" value="N" style="edgeStyle=orthogonalEdgeStyle;rounded=0;orthogonalLoop=1;jettySize=auto;html=1;exitX=1;exitY=0.5;exitDx=0;exitDy=0;entryX=-0.065;entryY=0.506;entryDx=0;entryDy=0;entryPerimeter=0;" edge="1" parent="1" source="unVaKgMmHh477C6XNQjO-12" target="unVaKgMmHh477C6XNQjO-14">
          <mxGeometry relative="1" as="geometry" />
        </mxCell>
        <mxCell id="unVaKgMmHh477C6XNQjO-12" value="q-&amp;gt;que == NULL" style="rhombus;whiteSpace=wrap;html=1;" vertex="1" parent="1">
          <mxGeometry x="80" y="385" width="120" height="60" as="geometry" />
        </mxCell>
        <mxCell id="unVaKgMmHh477C6XNQjO-13" value="return -1;" style="shape=document;whiteSpace=wrap;html=1;boundedLbl=1;" vertex="1" parent="1">
          <mxGeometry x="105" y="495" width="70" height="50" as="geometry" />
        </mxCell>
        <mxCell id="unVaKgMmHh477C6XNQjO-14" value="return 0;" style="shape=document;whiteSpace=wrap;html=1;boundedLbl=1;" vertex="1" parent="1">
          <mxGeometry x="265" y="390" width="70" height="50" as="geometry" />
        </mxCell>
        <mxCell id="unVaKgMmHh477C6XNQjO-15" style="edgeStyle=orthogonalEdgeStyle;rounded=0;orthogonalLoop=1;jettySize=auto;html=1;exitX=0.509;exitY=0.848;exitDx=0;exitDy=0;exitPerimeter=0;entryX=0.5;entryY=0;entryDx=0;entryDy=0;entryPerimeter=0;" edge="1" parent="1" source="unVaKgMmHh477C6XNQjO-13" target="unVaKgMmHh477C6XNQjO-17">
          <mxGeometry relative="1" as="geometry" />
        </mxCell>
        <mxCell id="unVaKgMmHh477C6XNQjO-16" style="edgeStyle=orthogonalEdgeStyle;rounded=0;orthogonalLoop=1;jettySize=auto;html=1;exitX=0.523;exitY=0.803;exitDx=0;exitDy=0;exitPerimeter=0;entryX=0.976;entryY=0.623;entryDx=0;entryDy=0;entryPerimeter=0;" edge="1" parent="1" source="unVaKgMmHh477C6XNQjO-14" target="unVaKgMmHh477C6XNQjO-17">
          <mxGeometry relative="1" as="geometry">
            <Array as="points">
              <mxPoint x="302" y="460" />
              <mxPoint x="302" y="595" />
            </Array>
            <mxPoint x="192" y="596" as="targetPoint" />
          </mxGeometry>
        </mxCell>
        <mxCell id="unVaKgMmHh477C6XNQjO-17" value="End" style="strokeWidth=2;html=1;shape=mxgraph.flowchart.start_1;whiteSpace=wrap;" vertex="1" parent="1">
          <mxGeometry x="90" y="570" width="100" height="40" as="geometry" />
        </mxCell>
        <mxCell id="unVaKgMmHh477C6XNQjO-18" value="Enque" style="text;align=center;fontStyle=1;verticalAlign=middle;spacingLeft=3;spacingRight=3;strokeColor=none;rotatable=0;points=[[0,0.5],[1,0.5]];portConstraint=eastwest;html=1;" vertex="1" parent="1">
          <mxGeometry x="490" y="54" width="80" height="26" as="geometry" />
        </mxCell>
        <mxCell id="unVaKgMmHh477C6XNQjO-19" style="edgeStyle=orthogonalEdgeStyle;rounded=0;orthogonalLoop=1;jettySize=auto;html=1;exitX=0.5;exitY=1;exitDx=0;exitDy=0;exitPerimeter=0;entryX=0.5;entryY=0;entryDx=0;entryDy=0;" edge="1" parent="1" source="unVaKgMmHh477C6XNQjO-20" target="unVaKgMmHh477C6XNQjO-48">
          <mxGeometry relative="1" as="geometry" />
        </mxCell>
        <mxCell id="unVaKgMmHh477C6XNQjO-20" value="Start" style="strokeWidth=2;html=1;shape=mxgraph.flowchart.start_1;whiteSpace=wrap;" vertex="1" parent="1">
          <mxGeometry x="480" y="80" width="100" height="40" as="geometry" />
        </mxCell>
        <mxCell id="unVaKgMmHh477C6XNQjO-21" value="Y" style="edgeStyle=orthogonalEdgeStyle;rounded=0;orthogonalLoop=1;jettySize=auto;html=1;exitX=1;exitY=0.5;exitDx=0;exitDy=0;" edge="1" parent="1" source="unVaKgMmHh477C6XNQjO-23">
          <mxGeometry relative="1" as="geometry">
            <mxPoint x="630" y="250.0000000000001" as="targetPoint" />
          </mxGeometry>
        </mxCell>
        <mxCell id="unVaKgMmHh477C6XNQjO-22" value="N" style="edgeStyle=orthogonalEdgeStyle;rounded=0;orthogonalLoop=1;jettySize=auto;html=1;exitX=0.5;exitY=1;exitDx=0;exitDy=0;entryX=0.5;entryY=0;entryDx=0;entryDy=0;" edge="1" parent="1" source="unVaKgMmHh477C6XNQjO-23" target="unVaKgMmHh477C6XNQjO-26">
          <mxGeometry relative="1" as="geometry" />
        </mxCell>
        <mxCell id="unVaKgMmHh477C6XNQjO-23" value="q-&amp;gt;num &amp;gt;= q-&amp;gt;max" style="rhombus;whiteSpace=wrap;html=1;" vertex="1" parent="1">
          <mxGeometry x="470" y="220" width="120" height="60" as="geometry" />
        </mxCell>
        <mxCell id="unVaKgMmHh477C6XNQjO-24" value="return -1;" style="shape=document;whiteSpace=wrap;html=1;boundedLbl=1;" vertex="1" parent="1">
          <mxGeometry x="630" y="225" width="70" height="50" as="geometry" />
        </mxCell>
        <mxCell id="unVaKgMmHh477C6XNQjO-150" style="edgeStyle=orthogonalEdgeStyle;rounded=0;orthogonalLoop=1;jettySize=auto;html=1;exitX=0.5;exitY=1;exitDx=0;exitDy=0;entryX=0.5;entryY=0;entryDx=0;entryDy=0;" edge="1" parent="1" source="unVaKgMmHh477C6XNQjO-26" target="unVaKgMmHh477C6XNQjO-149">
          <mxGeometry relative="1" as="geometry" />
        </mxCell>
        <mxCell id="unVaKgMmHh477C6XNQjO-26" value="&lt;div&gt;q-&amp;gt;que[q-&amp;gt;rear] = x;&lt;/div&gt;&lt;div&gt;q-&amp;gt;num++;&lt;/div&gt;&lt;div&gt;&lt;span style=&quot;background-color: initial;&quot;&gt;q-&amp;gt;rear++;&lt;/span&gt;&lt;/div&gt;" style="rounded=0;whiteSpace=wrap;html=1;" vertex="1" parent="1">
          <mxGeometry x="470" y="315" width="120" height="45" as="geometry" />
        </mxCell>
        <mxCell id="unVaKgMmHh477C6XNQjO-27" value="return 0;" style="shape=document;whiteSpace=wrap;html=1;boundedLbl=1;" vertex="1" parent="1">
          <mxGeometry x="495" y="522" width="70" height="50" as="geometry" />
        </mxCell>
        <mxCell id="unVaKgMmHh477C6XNQjO-28" style="edgeStyle=orthogonalEdgeStyle;rounded=0;orthogonalLoop=1;jettySize=auto;html=1;exitX=0.507;exitY=0.857;exitDx=0;exitDy=0;exitPerimeter=0;entryX=0.5;entryY=0;entryDx=0;entryDy=0;entryPerimeter=0;" edge="1" parent="1" source="unVaKgMmHh477C6XNQjO-27" target="unVaKgMmHh477C6XNQjO-30">
          <mxGeometry relative="1" as="geometry" />
        </mxCell>
        <mxCell id="unVaKgMmHh477C6XNQjO-29" style="edgeStyle=orthogonalEdgeStyle;rounded=0;orthogonalLoop=1;jettySize=auto;html=1;exitX=0.534;exitY=0.847;exitDx=0;exitDy=0;exitPerimeter=0;entryX=0.993;entryY=0.625;entryDx=0;entryDy=0;entryPerimeter=0;" edge="1" parent="1" source="unVaKgMmHh477C6XNQjO-24" target="unVaKgMmHh477C6XNQjO-30">
          <mxGeometry relative="1" as="geometry">
            <Array as="points">
              <mxPoint x="667" y="358" />
              <mxPoint x="667" y="607" />
            </Array>
            <mxPoint x="665.98" y="357.24999999999994" as="sourcePoint" />
          </mxGeometry>
        </mxCell>
        <mxCell id="unVaKgMmHh477C6XNQjO-30" value="End" style="strokeWidth=2;html=1;shape=mxgraph.flowchart.start_1;whiteSpace=wrap;" vertex="1" parent="1">
          <mxGeometry x="480" y="590" width="100" height="40" as="geometry" />
        </mxCell>
        <mxCell id="unVaKgMmHh477C6XNQjO-31" value="Deque" style="text;align=center;fontStyle=1;verticalAlign=middle;spacingLeft=3;spacingRight=3;strokeColor=none;rotatable=0;points=[[0,0.5],[1,0.5]];portConstraint=eastwest;html=1;" vertex="1" parent="1">
          <mxGeometry x="470" y="680" width="80" height="26" as="geometry" />
        </mxCell>
        <mxCell id="unVaKgMmHh477C6XNQjO-32" style="edgeStyle=orthogonalEdgeStyle;rounded=0;orthogonalLoop=1;jettySize=auto;html=1;exitX=0.5;exitY=1;exitDx=0;exitDy=0;exitPerimeter=0;" edge="1" parent="1" source="unVaKgMmHh477C6XNQjO-33" target="unVaKgMmHh477C6XNQjO-50">
          <mxGeometry relative="1" as="geometry" />
        </mxCell>
        <mxCell id="unVaKgMmHh477C6XNQjO-33" value="Start" style="strokeWidth=2;html=1;shape=mxgraph.flowchart.start_1;whiteSpace=wrap;" vertex="1" parent="1">
          <mxGeometry x="460" y="706" width="100" height="40" as="geometry" />
        </mxCell>
        <mxCell id="unVaKgMmHh477C6XNQjO-34" value="Y" style="edgeStyle=orthogonalEdgeStyle;rounded=0;orthogonalLoop=1;jettySize=auto;html=1;exitX=1;exitY=0.5;exitDx=0;exitDy=0;" edge="1" parent="1" source="unVaKgMmHh477C6XNQjO-36" target="unVaKgMmHh477C6XNQjO-37">
          <mxGeometry relative="1" as="geometry" />
        </mxCell>
        <mxCell id="unVaKgMmHh477C6XNQjO-35" value="N" style="edgeStyle=orthogonalEdgeStyle;rounded=0;orthogonalLoop=1;jettySize=auto;html=1;exitX=0.5;exitY=1;exitDx=0;exitDy=0;entryX=0.5;entryY=0;entryDx=0;entryDy=0;" edge="1" parent="1" source="unVaKgMmHh477C6XNQjO-36" target="unVaKgMmHh477C6XNQjO-39">
          <mxGeometry relative="1" as="geometry" />
        </mxCell>
        <mxCell id="unVaKgMmHh477C6XNQjO-36" value="q-&amp;gt;num &amp;lt;= 0" style="rhombus;whiteSpace=wrap;html=1;" vertex="1" parent="1">
          <mxGeometry x="450" y="840" width="120" height="60" as="geometry" />
        </mxCell>
        <mxCell id="unVaKgMmHh477C6XNQjO-37" value="return -1;" style="shape=document;whiteSpace=wrap;html=1;boundedLbl=1;" vertex="1" parent="1">
          <mxGeometry x="610" y="845" width="70" height="50" as="geometry" />
        </mxCell>
        <mxCell id="unVaKgMmHh477C6XNQjO-156" style="edgeStyle=orthogonalEdgeStyle;rounded=0;orthogonalLoop=1;jettySize=auto;html=1;exitX=0.5;exitY=1;exitDx=0;exitDy=0;entryX=0.5;entryY=0;entryDx=0;entryDy=0;" edge="1" parent="1" source="unVaKgMmHh477C6XNQjO-39">
          <mxGeometry relative="1" as="geometry">
            <mxPoint x="510" y="1042.5" as="targetPoint" />
          </mxGeometry>
        </mxCell>
        <mxCell id="unVaKgMmHh477C6XNQjO-39" value="&lt;div&gt;q-&amp;gt;num--;&lt;/div&gt;&lt;div&gt;*x = q-&amp;gt;que[q-&amp;gt;front];&lt;span style=&quot;&quot;&gt;&lt;/span&gt;&lt;/div&gt;&lt;div&gt;&lt;span style=&quot;&quot;&gt;&lt;span style=&quot;&quot;&gt;&lt;span style=&quot;white-space: pre;&quot;&gt;&amp;nbsp;&amp;nbsp;&amp;nbsp;&amp;nbsp;&lt;/span&gt;&lt;span style=&quot;white-space: pre;&quot;&gt;&amp;nbsp;&amp;nbsp;&amp;nbsp;&amp;nbsp;&lt;/span&gt;&lt;/span&gt;q-&amp;gt;que[q-&amp;gt;front] = NULL;&lt;/span&gt;&lt;/div&gt;&lt;div&gt;&lt;span style=&quot;&quot;&gt;&lt;span style=&quot;&quot;&gt;&lt;span style=&quot;white-space: pre;&quot;&gt;&amp;nbsp;&amp;nbsp;&amp;nbsp;&amp;nbsp;&lt;/span&gt;&lt;span style=&quot;white-space: pre;&quot;&gt;&amp;nbsp;&amp;nbsp;&amp;nbsp;&amp;nbsp;&lt;/span&gt;&lt;/span&gt;q-&amp;gt;front++;&lt;/span&gt;&lt;/div&gt;" style="rounded=0;whiteSpace=wrap;html=1;" vertex="1" parent="1">
          <mxGeometry x="420" y="949" width="180" height="63" as="geometry" />
        </mxCell>
        <mxCell id="unVaKgMmHh477C6XNQjO-164" style="edgeStyle=orthogonalEdgeStyle;rounded=0;orthogonalLoop=1;jettySize=auto;html=1;exitX=0.485;exitY=0.815;exitDx=0;exitDy=0;exitPerimeter=0;entryX=0.5;entryY=0;entryDx=0;entryDy=0;entryPerimeter=0;" edge="1" parent="1" source="unVaKgMmHh477C6XNQjO-158" target="unVaKgMmHh477C6XNQjO-43">
          <mxGeometry relative="1" as="geometry" />
        </mxCell>
        <mxCell id="unVaKgMmHh477C6XNQjO-43" value="End" style="strokeWidth=2;html=1;shape=mxgraph.flowchart.start_1;whiteSpace=wrap;" vertex="1" parent="1">
          <mxGeometry x="460" y="1252" width="100" height="40" as="geometry" />
        </mxCell>
        <mxCell id="unVaKgMmHh477C6XNQjO-44" value="Peek" style="text;align=center;fontStyle=1;verticalAlign=middle;spacingLeft=3;spacingRight=3;strokeColor=none;rotatable=0;points=[[0,0.5],[1,0.5]];portConstraint=eastwest;html=1;" vertex="1" parent="1">
          <mxGeometry x="87" y="700" width="80" height="26" as="geometry" />
        </mxCell>
        <mxCell id="unVaKgMmHh477C6XNQjO-45" style="edgeStyle=orthogonalEdgeStyle;rounded=0;orthogonalLoop=1;jettySize=auto;html=1;exitX=0.5;exitY=1;exitDx=0;exitDy=0;exitPerimeter=0;entryX=0.5;entryY=0;entryDx=0;entryDy=0;" edge="1" parent="1" source="unVaKgMmHh477C6XNQjO-46" target="unVaKgMmHh477C6XNQjO-52">
          <mxGeometry relative="1" as="geometry" />
        </mxCell>
        <mxCell id="unVaKgMmHh477C6XNQjO-46" value="Start" style="strokeWidth=2;html=1;shape=mxgraph.flowchart.start_1;whiteSpace=wrap;" vertex="1" parent="1">
          <mxGeometry x="77" y="730" width="100" height="40" as="geometry" />
        </mxCell>
        <mxCell id="unVaKgMmHh477C6XNQjO-47" style="edgeStyle=orthogonalEdgeStyle;rounded=0;orthogonalLoop=1;jettySize=auto;html=1;exitX=0.5;exitY=1;exitDx=0;exitDy=0;entryX=0.5;entryY=0;entryDx=0;entryDy=0;" edge="1" parent="1" source="unVaKgMmHh477C6XNQjO-48" target="unVaKgMmHh477C6XNQjO-23">
          <mxGeometry relative="1" as="geometry" />
        </mxCell>
        <mxCell id="unVaKgMmHh477C6XNQjO-48" value="IntQueue* q;&lt;br style=&quot;border-color: var(--border-color);&quot;&gt;int x;" style="shape=parallelogram;perimeter=parallelogramPerimeter;whiteSpace=wrap;html=1;fixedSize=1;" vertex="1" parent="1">
          <mxGeometry x="470" y="150" width="120" height="50" as="geometry" />
        </mxCell>
        <mxCell id="unVaKgMmHh477C6XNQjO-49" style="edgeStyle=orthogonalEdgeStyle;rounded=0;orthogonalLoop=1;jettySize=auto;html=1;exitX=0.5;exitY=1;exitDx=0;exitDy=0;" edge="1" parent="1" source="unVaKgMmHh477C6XNQjO-50" target="unVaKgMmHh477C6XNQjO-36">
          <mxGeometry relative="1" as="geometry" />
        </mxCell>
        <mxCell id="unVaKgMmHh477C6XNQjO-50" value="IntQueue* q;&lt;br&gt;int* x;" style="shape=parallelogram;perimeter=parallelogramPerimeter;whiteSpace=wrap;html=1;fixedSize=1;" vertex="1" parent="1">
          <mxGeometry x="450" y="770" width="120" height="50" as="geometry" />
        </mxCell>
        <mxCell id="unVaKgMmHh477C6XNQjO-51" style="edgeStyle=orthogonalEdgeStyle;rounded=0;orthogonalLoop=1;jettySize=auto;html=1;exitX=0.5;exitY=1;exitDx=0;exitDy=0;entryX=0.5;entryY=0;entryDx=0;entryDy=0;" edge="1" parent="1" source="unVaKgMmHh477C6XNQjO-52" target="unVaKgMmHh477C6XNQjO-55">
          <mxGeometry relative="1" as="geometry" />
        </mxCell>
        <mxCell id="unVaKgMmHh477C6XNQjO-52" value="IntQueue* q;&lt;br style=&quot;border-color: var(--border-color);&quot;&gt;int* x;" style="shape=parallelogram;perimeter=parallelogramPerimeter;whiteSpace=wrap;html=1;fixedSize=1;" vertex="1" parent="1">
          <mxGeometry x="67" y="790" width="120" height="50" as="geometry" />
        </mxCell>
        <mxCell id="unVaKgMmHh477C6XNQjO-53" value="Y" style="edgeStyle=orthogonalEdgeStyle;rounded=0;orthogonalLoop=1;jettySize=auto;html=1;exitX=1;exitY=0.5;exitDx=0;exitDy=0;entryX=0;entryY=0.5;entryDx=0;entryDy=0;" edge="1" parent="1" source="unVaKgMmHh477C6XNQjO-55" target="unVaKgMmHh477C6XNQjO-56">
          <mxGeometry relative="1" as="geometry" />
        </mxCell>
        <mxCell id="unVaKgMmHh477C6XNQjO-54" style="edgeStyle=orthogonalEdgeStyle;rounded=0;orthogonalLoop=1;jettySize=auto;html=1;exitX=0.5;exitY=1;exitDx=0;exitDy=0;" edge="1" parent="1" source="unVaKgMmHh477C6XNQjO-55" target="unVaKgMmHh477C6XNQjO-58">
          <mxGeometry relative="1" as="geometry" />
        </mxCell>
        <mxCell id="unVaKgMmHh477C6XNQjO-55" value="q-&amp;gt;num &amp;lt;= 0" style="rhombus;whiteSpace=wrap;html=1;" vertex="1" parent="1">
          <mxGeometry x="67" y="859" width="120" height="60" as="geometry" />
        </mxCell>
        <mxCell id="unVaKgMmHh477C6XNQjO-56" value="return -1;" style="shape=document;whiteSpace=wrap;html=1;boundedLbl=1;" vertex="1" parent="1">
          <mxGeometry x="227" y="864" width="70" height="50" as="geometry" />
        </mxCell>
        <mxCell id="unVaKgMmHh477C6XNQjO-57" style="edgeStyle=orthogonalEdgeStyle;rounded=0;orthogonalLoop=1;jettySize=auto;html=1;exitX=0.5;exitY=1;exitDx=0;exitDy=0;entryX=0.5;entryY=0;entryDx=0;entryDy=0;" edge="1" parent="1" source="unVaKgMmHh477C6XNQjO-58" target="unVaKgMmHh477C6XNQjO-59">
          <mxGeometry relative="1" as="geometry" />
        </mxCell>
        <mxCell id="unVaKgMmHh477C6XNQjO-58" value="*x = q-&amp;gt;que[q-&amp;gt;front];" style="rounded=0;whiteSpace=wrap;html=1;" vertex="1" parent="1">
          <mxGeometry x="62" y="949" width="130" height="41" as="geometry" />
        </mxCell>
        <mxCell id="unVaKgMmHh477C6XNQjO-59" value="return 0;" style="shape=document;whiteSpace=wrap;html=1;boundedLbl=1;" vertex="1" parent="1">
          <mxGeometry x="92" y="1020" width="70" height="50" as="geometry" />
        </mxCell>
        <mxCell id="unVaKgMmHh477C6XNQjO-60" style="edgeStyle=orthogonalEdgeStyle;rounded=0;orthogonalLoop=1;jettySize=auto;html=1;exitX=0.509;exitY=0.848;exitDx=0;exitDy=0;exitPerimeter=0;entryX=0.5;entryY=0;entryDx=0;entryDy=0;entryPerimeter=0;" edge="1" parent="1" target="unVaKgMmHh477C6XNQjO-62">
          <mxGeometry relative="1" as="geometry">
            <mxPoint x="128" y="1060" as="sourcePoint" />
          </mxGeometry>
        </mxCell>
        <mxCell id="unVaKgMmHh477C6XNQjO-61" style="edgeStyle=orthogonalEdgeStyle;rounded=0;orthogonalLoop=1;jettySize=auto;html=1;entryX=1;entryY=0.5;entryDx=0;entryDy=0;entryPerimeter=0;exitX=0.566;exitY=0.85;exitDx=0;exitDy=0;exitPerimeter=0;" edge="1" parent="1" source="unVaKgMmHh477C6XNQjO-56" target="unVaKgMmHh477C6XNQjO-62">
          <mxGeometry relative="1" as="geometry">
            <mxPoint x="317" y="950" as="sourcePoint" />
            <Array as="points">
              <mxPoint x="267" y="1113" />
            </Array>
          </mxGeometry>
        </mxCell>
        <mxCell id="unVaKgMmHh477C6XNQjO-62" value="End" style="strokeWidth=2;html=1;shape=mxgraph.flowchart.start_1;whiteSpace=wrap;" vertex="1" parent="1">
          <mxGeometry x="77" y="1093" width="100" height="40" as="geometry" />
        </mxCell>
        <mxCell id="unVaKgMmHh477C6XNQjO-63" value="Clear" style="text;align=center;fontStyle=1;verticalAlign=middle;spacingLeft=3;spacingRight=3;strokeColor=none;rotatable=0;points=[[0,0.5],[1,0.5]];portConstraint=eastwest;html=1;" vertex="1" parent="1">
          <mxGeometry x="62" y="1340" width="80" height="26" as="geometry" />
        </mxCell>
        <mxCell id="unVaKgMmHh477C6XNQjO-64" style="edgeStyle=orthogonalEdgeStyle;rounded=0;orthogonalLoop=1;jettySize=auto;html=1;exitX=0.5;exitY=1;exitDx=0;exitDy=0;exitPerimeter=0;entryX=0.5;entryY=0;entryDx=0;entryDy=0;" edge="1" parent="1" source="unVaKgMmHh477C6XNQjO-65" target="unVaKgMmHh477C6XNQjO-67">
          <mxGeometry relative="1" as="geometry" />
        </mxCell>
        <mxCell id="unVaKgMmHh477C6XNQjO-65" value="Start" style="strokeWidth=2;html=1;shape=mxgraph.flowchart.start_1;whiteSpace=wrap;" vertex="1" parent="1">
          <mxGeometry x="52" y="1378" width="100" height="40" as="geometry" />
        </mxCell>
        <mxCell id="unVaKgMmHh477C6XNQjO-66" style="edgeStyle=orthogonalEdgeStyle;rounded=0;orthogonalLoop=1;jettySize=auto;html=1;exitX=0.5;exitY=1;exitDx=0;exitDy=0;" edge="1" parent="1" source="unVaKgMmHh477C6XNQjO-67" target="unVaKgMmHh477C6XNQjO-89">
          <mxGeometry relative="1" as="geometry" />
        </mxCell>
        <mxCell id="unVaKgMmHh477C6XNQjO-67" value="IntQueue* q" style="shape=parallelogram;perimeter=parallelogramPerimeter;whiteSpace=wrap;html=1;fixedSize=1;" vertex="1" parent="1">
          <mxGeometry x="42" y="1438" width="120" height="50" as="geometry" />
        </mxCell>
        <mxCell id="unVaKgMmHh477C6XNQjO-68" value="Capacity" style="text;align=center;fontStyle=1;verticalAlign=middle;spacingLeft=3;spacingRight=3;strokeColor=none;rotatable=0;points=[[0,0.5],[1,0.5]];portConstraint=eastwest;html=1;" vertex="1" parent="1">
          <mxGeometry x="217" y="1340" width="80" height="26" as="geometry" />
        </mxCell>
        <mxCell id="unVaKgMmHh477C6XNQjO-69" style="edgeStyle=orthogonalEdgeStyle;rounded=0;orthogonalLoop=1;jettySize=auto;html=1;exitX=0.5;exitY=1;exitDx=0;exitDy=0;exitPerimeter=0;entryX=0.5;entryY=0;entryDx=0;entryDy=0;" edge="1" parent="1" source="unVaKgMmHh477C6XNQjO-70" target="unVaKgMmHh477C6XNQjO-72">
          <mxGeometry relative="1" as="geometry" />
        </mxCell>
        <mxCell id="unVaKgMmHh477C6XNQjO-70" value="Start" style="strokeWidth=2;html=1;shape=mxgraph.flowchart.start_1;whiteSpace=wrap;" vertex="1" parent="1">
          <mxGeometry x="207" y="1378" width="100" height="40" as="geometry" />
        </mxCell>
        <mxCell id="unVaKgMmHh477C6XNQjO-71" style="edgeStyle=orthogonalEdgeStyle;rounded=0;orthogonalLoop=1;jettySize=auto;html=1;exitX=0.5;exitY=1;exitDx=0;exitDy=0;entryX=0.5;entryY=0;entryDx=0;entryDy=0;entryPerimeter=0;" edge="1" parent="1" source="unVaKgMmHh477C6XNQjO-72" target="unVaKgMmHh477C6XNQjO-90">
          <mxGeometry relative="1" as="geometry" />
        </mxCell>
        <mxCell id="unVaKgMmHh477C6XNQjO-72" value="IntQueue* q" style="shape=parallelogram;perimeter=parallelogramPerimeter;whiteSpace=wrap;html=1;fixedSize=1;" vertex="1" parent="1">
          <mxGeometry x="197" y="1438" width="120" height="50" as="geometry" />
        </mxCell>
        <mxCell id="unVaKgMmHh477C6XNQjO-73" value="Size" style="text;align=center;fontStyle=1;verticalAlign=middle;spacingLeft=3;spacingRight=3;strokeColor=none;rotatable=0;points=[[0,0.5],[1,0.5]];portConstraint=eastwest;html=1;" vertex="1" parent="1">
          <mxGeometry x="377" y="1340" width="80" height="26" as="geometry" />
        </mxCell>
        <mxCell id="unVaKgMmHh477C6XNQjO-74" style="edgeStyle=orthogonalEdgeStyle;rounded=0;orthogonalLoop=1;jettySize=auto;html=1;exitX=0.5;exitY=1;exitDx=0;exitDy=0;exitPerimeter=0;entryX=0.5;entryY=0;entryDx=0;entryDy=0;" edge="1" parent="1" source="unVaKgMmHh477C6XNQjO-75" target="unVaKgMmHh477C6XNQjO-77">
          <mxGeometry relative="1" as="geometry" />
        </mxCell>
        <mxCell id="unVaKgMmHh477C6XNQjO-75" value="Start" style="strokeWidth=2;html=1;shape=mxgraph.flowchart.start_1;whiteSpace=wrap;" vertex="1" parent="1">
          <mxGeometry x="367" y="1378" width="100" height="40" as="geometry" />
        </mxCell>
        <mxCell id="unVaKgMmHh477C6XNQjO-76" style="edgeStyle=orthogonalEdgeStyle;rounded=0;orthogonalLoop=1;jettySize=auto;html=1;exitX=0.5;exitY=1;exitDx=0;exitDy=0;entryX=0.5;entryY=0;entryDx=0;entryDy=0;entryPerimeter=0;" edge="1" parent="1" source="unVaKgMmHh477C6XNQjO-77" target="unVaKgMmHh477C6XNQjO-91">
          <mxGeometry relative="1" as="geometry" />
        </mxCell>
        <mxCell id="unVaKgMmHh477C6XNQjO-77" value="IntQueue* q" style="shape=parallelogram;perimeter=parallelogramPerimeter;whiteSpace=wrap;html=1;fixedSize=1;" vertex="1" parent="1">
          <mxGeometry x="357" y="1438" width="120" height="50" as="geometry" />
        </mxCell>
        <mxCell id="unVaKgMmHh477C6XNQjO-78" value="IsEmpty" style="text;align=center;fontStyle=1;verticalAlign=middle;spacingLeft=3;spacingRight=3;strokeColor=none;rotatable=0;points=[[0,0.5],[1,0.5]];portConstraint=eastwest;html=1;" vertex="1" parent="1">
          <mxGeometry x="537" y="1340" width="80" height="26" as="geometry" />
        </mxCell>
        <mxCell id="unVaKgMmHh477C6XNQjO-79" style="edgeStyle=orthogonalEdgeStyle;rounded=0;orthogonalLoop=1;jettySize=auto;html=1;exitX=0.5;exitY=1;exitDx=0;exitDy=0;exitPerimeter=0;entryX=0.5;entryY=0;entryDx=0;entryDy=0;" edge="1" parent="1" source="unVaKgMmHh477C6XNQjO-80" target="unVaKgMmHh477C6XNQjO-82">
          <mxGeometry relative="1" as="geometry" />
        </mxCell>
        <mxCell id="unVaKgMmHh477C6XNQjO-80" value="Start" style="strokeWidth=2;html=1;shape=mxgraph.flowchart.start_1;whiteSpace=wrap;" vertex="1" parent="1">
          <mxGeometry x="527" y="1378" width="100" height="40" as="geometry" />
        </mxCell>
        <mxCell id="unVaKgMmHh477C6XNQjO-81" style="edgeStyle=orthogonalEdgeStyle;rounded=0;orthogonalLoop=1;jettySize=auto;html=1;exitX=0.5;exitY=1;exitDx=0;exitDy=0;entryX=0.5;entryY=0;entryDx=0;entryDy=0;entryPerimeter=0;" edge="1" parent="1" source="unVaKgMmHh477C6XNQjO-82" target="unVaKgMmHh477C6XNQjO-92">
          <mxGeometry relative="1" as="geometry" />
        </mxCell>
        <mxCell id="unVaKgMmHh477C6XNQjO-82" value="IntQueue* q" style="shape=parallelogram;perimeter=parallelogramPerimeter;whiteSpace=wrap;html=1;fixedSize=1;" vertex="1" parent="1">
          <mxGeometry x="517" y="1438" width="120" height="50" as="geometry" />
        </mxCell>
        <mxCell id="unVaKgMmHh477C6XNQjO-83" value="IsFull" style="text;align=center;fontStyle=1;verticalAlign=middle;spacingLeft=3;spacingRight=3;strokeColor=none;rotatable=0;points=[[0,0.5],[1,0.5]];portConstraint=eastwest;html=1;" vertex="1" parent="1">
          <mxGeometry x="714" y="1340" width="80" height="26" as="geometry" />
        </mxCell>
        <mxCell id="unVaKgMmHh477C6XNQjO-84" style="edgeStyle=orthogonalEdgeStyle;rounded=0;orthogonalLoop=1;jettySize=auto;html=1;exitX=0.5;exitY=1;exitDx=0;exitDy=0;exitPerimeter=0;entryX=0.5;entryY=0;entryDx=0;entryDy=0;" edge="1" parent="1" source="unVaKgMmHh477C6XNQjO-85" target="unVaKgMmHh477C6XNQjO-87">
          <mxGeometry relative="1" as="geometry" />
        </mxCell>
        <mxCell id="unVaKgMmHh477C6XNQjO-85" value="Start" style="strokeWidth=2;html=1;shape=mxgraph.flowchart.start_1;whiteSpace=wrap;" vertex="1" parent="1">
          <mxGeometry x="704" y="1378" width="100" height="40" as="geometry" />
        </mxCell>
        <mxCell id="unVaKgMmHh477C6XNQjO-86" style="edgeStyle=orthogonalEdgeStyle;rounded=0;orthogonalLoop=1;jettySize=auto;html=1;exitX=0.5;exitY=1;exitDx=0;exitDy=0;entryX=0.5;entryY=0;entryDx=0;entryDy=0;entryPerimeter=0;" edge="1" parent="1" source="unVaKgMmHh477C6XNQjO-87" target="unVaKgMmHh477C6XNQjO-93">
          <mxGeometry relative="1" as="geometry" />
        </mxCell>
        <mxCell id="unVaKgMmHh477C6XNQjO-87" value="IntQueue* q" style="shape=parallelogram;perimeter=parallelogramPerimeter;whiteSpace=wrap;html=1;fixedSize=1;" vertex="1" parent="1">
          <mxGeometry x="694" y="1438" width="120" height="50" as="geometry" />
        </mxCell>
        <mxCell id="unVaKgMmHh477C6XNQjO-88" style="edgeStyle=orthogonalEdgeStyle;rounded=0;orthogonalLoop=1;jettySize=auto;html=1;exitX=0.5;exitY=1;exitDx=0;exitDy=0;entryX=0.5;entryY=0;entryDx=0;entryDy=0;entryPerimeter=0;" edge="1" parent="1" source="unVaKgMmHh477C6XNQjO-89" target="unVaKgMmHh477C6XNQjO-94">
          <mxGeometry relative="1" as="geometry" />
        </mxCell>
        <mxCell id="unVaKgMmHh477C6XNQjO-89" value="&lt;div&gt;q-&amp;gt;num = 0;&lt;/div&gt;&lt;div&gt;q-&amp;gt;front = 0;&lt;span style=&quot;&quot;&gt;&lt;/span&gt;&lt;/div&gt;&lt;div&gt;&lt;span style=&quot;&quot;&gt;&lt;span style=&quot;&quot;&gt;&lt;span style=&quot;white-space: pre;&quot;&gt;&amp;nbsp;&amp;nbsp;&amp;nbsp;&amp;nbsp;&lt;/span&gt;&lt;/span&gt;q-&amp;gt;rear = 0;&lt;/span&gt;&lt;/div&gt;" style="rounded=0;whiteSpace=wrap;html=1;" vertex="1" parent="1">
          <mxGeometry x="59.5" y="1520" width="85" height="50" as="geometry" />
        </mxCell>
        <mxCell id="unVaKgMmHh477C6XNQjO-90" value="return q-&amp;gt;max;" style="strokeWidth=2;html=1;shape=mxgraph.flowchart.document2;whiteSpace=wrap;size=0.25;" vertex="1" parent="1">
          <mxGeometry x="207" y="1520" width="100" height="40" as="geometry" />
        </mxCell>
        <mxCell id="unVaKgMmHh477C6XNQjO-91" value="return q-&amp;gt;num;" style="strokeWidth=2;html=1;shape=mxgraph.flowchart.document2;whiteSpace=wrap;size=0.25;" vertex="1" parent="1">
          <mxGeometry x="367" y="1520" width="100" height="40" as="geometry" />
        </mxCell>
        <mxCell id="unVaKgMmHh477C6XNQjO-92" value="return q-&amp;gt;num &amp;lt;= 0;" style="strokeWidth=2;html=1;shape=mxgraph.flowchart.document2;whiteSpace=wrap;size=0.25;" vertex="1" parent="1">
          <mxGeometry x="527" y="1520" width="100" height="40" as="geometry" />
        </mxCell>
        <mxCell id="unVaKgMmHh477C6XNQjO-93" value="return q-&amp;gt;max &amp;lt;= q-&amp;gt;num;" style="strokeWidth=2;html=1;shape=mxgraph.flowchart.document2;whiteSpace=wrap;size=0.25;" vertex="1" parent="1">
          <mxGeometry x="677" y="1520" width="150" height="50" as="geometry" />
        </mxCell>
        <mxCell id="unVaKgMmHh477C6XNQjO-94" value="End" style="strokeWidth=2;html=1;shape=mxgraph.flowchart.start_1;whiteSpace=wrap;" vertex="1" parent="1">
          <mxGeometry x="52" y="1593" width="100" height="40" as="geometry" />
        </mxCell>
        <mxCell id="unVaKgMmHh477C6XNQjO-95" style="edgeStyle=orthogonalEdgeStyle;rounded=0;orthogonalLoop=1;jettySize=auto;html=1;exitX=0.512;exitY=0.892;exitDx=0;exitDy=0;exitPerimeter=0;entryX=0.5;entryY=0;entryDx=0;entryDy=0;entryPerimeter=0;" edge="1" parent="1" source="unVaKgMmHh477C6XNQjO-90" target="unVaKgMmHh477C6XNQjO-96">
          <mxGeometry relative="1" as="geometry">
            <mxPoint x="258" y="1560" as="sourcePoint" />
          </mxGeometry>
        </mxCell>
        <mxCell id="unVaKgMmHh477C6XNQjO-96" value="End" style="strokeWidth=2;html=1;shape=mxgraph.flowchart.start_1;whiteSpace=wrap;" vertex="1" parent="1">
          <mxGeometry x="207" y="1590" width="100" height="43" as="geometry" />
        </mxCell>
        <mxCell id="unVaKgMmHh477C6XNQjO-97" style="edgeStyle=orthogonalEdgeStyle;rounded=0;orthogonalLoop=1;jettySize=auto;html=1;exitX=0.512;exitY=0.804;exitDx=0;exitDy=0;exitPerimeter=0;" edge="1" parent="1" source="unVaKgMmHh477C6XNQjO-91">
          <mxGeometry relative="1" as="geometry">
            <mxPoint x="418" y="1600" as="targetPoint" />
          </mxGeometry>
        </mxCell>
        <mxCell id="unVaKgMmHh477C6XNQjO-98" value="End" style="strokeWidth=2;html=1;shape=mxgraph.flowchart.start_1;whiteSpace=wrap;" vertex="1" parent="1">
          <mxGeometry x="367" y="1600" width="100" height="43" as="geometry" />
        </mxCell>
        <mxCell id="unVaKgMmHh477C6XNQjO-99" value="End" style="strokeWidth=2;html=1;shape=mxgraph.flowchart.start_1;whiteSpace=wrap;" vertex="1" parent="1">
          <mxGeometry x="527" y="1600" width="100" height="43" as="geometry" />
        </mxCell>
        <mxCell id="unVaKgMmHh477C6XNQjO-100" value="End" style="strokeWidth=2;html=1;shape=mxgraph.flowchart.start_1;whiteSpace=wrap;" vertex="1" parent="1">
          <mxGeometry x="704" y="1600" width="100" height="43" as="geometry" />
        </mxCell>
        <mxCell id="unVaKgMmHh477C6XNQjO-101" style="edgeStyle=orthogonalEdgeStyle;rounded=0;orthogonalLoop=1;jettySize=auto;html=1;exitX=0.512;exitY=0.804;exitDx=0;exitDy=0;exitPerimeter=0;" edge="1" parent="1">
          <mxGeometry relative="1" as="geometry">
            <mxPoint x="577" y="1552" as="sourcePoint" />
            <mxPoint x="577" y="1600" as="targetPoint" />
          </mxGeometry>
        </mxCell>
        <mxCell id="unVaKgMmHh477C6XNQjO-102" style="edgeStyle=orthogonalEdgeStyle;rounded=0;orthogonalLoop=1;jettySize=auto;html=1;exitX=0.49;exitY=0.855;exitDx=0;exitDy=0;exitPerimeter=0;entryX=0.5;entryY=0;entryDx=0;entryDy=0;entryPerimeter=0;" edge="1" parent="1" source="unVaKgMmHh477C6XNQjO-93">
          <mxGeometry relative="1" as="geometry">
            <mxPoint x="752.5" y="1566" as="sourcePoint" />
            <mxPoint x="751.5" y="1600" as="targetPoint" />
          </mxGeometry>
        </mxCell>
        <mxCell id="unVaKgMmHh477C6XNQjO-103" value="Search" style="text;align=center;fontStyle=1;verticalAlign=middle;spacingLeft=3;spacingRight=3;strokeColor=none;rotatable=0;points=[[0,0.5],[1,0.5]];portConstraint=eastwest;html=1;" vertex="1" parent="1">
          <mxGeometry x="60" y="1700" width="80" height="26" as="geometry" />
        </mxCell>
        <mxCell id="unVaKgMmHh477C6XNQjO-104" value="Print" style="text;align=center;fontStyle=1;verticalAlign=middle;spacingLeft=3;spacingRight=3;strokeColor=none;rotatable=0;points=[[0,0.5],[1,0.5]];portConstraint=eastwest;html=1;" vertex="1" parent="1">
          <mxGeometry x="370" y="1700" width="80" height="26" as="geometry" />
        </mxCell>
        <mxCell id="unVaKgMmHh477C6XNQjO-105" value="Terminate" style="text;align=center;fontStyle=1;verticalAlign=middle;spacingLeft=3;spacingRight=3;strokeColor=none;rotatable=0;points=[[0,0.5],[1,0.5]];portConstraint=eastwest;html=1;" vertex="1" parent="1">
          <mxGeometry x="680" y="1700" width="80" height="26" as="geometry" />
        </mxCell>
        <mxCell id="unVaKgMmHh477C6XNQjO-106" style="edgeStyle=orthogonalEdgeStyle;rounded=0;orthogonalLoop=1;jettySize=auto;html=1;exitX=0.5;exitY=1;exitDx=0;exitDy=0;entryX=0.5;entryY=0;entryDx=0;entryDy=0;entryPerimeter=0;" edge="1" parent="1" source="unVaKgMmHh477C6XNQjO-107" target="unVaKgMmHh477C6XNQjO-111">
          <mxGeometry relative="1" as="geometry" />
        </mxCell>
        <mxCell id="unVaKgMmHh477C6XNQjO-107" value="const IntStack* s;&lt;br&gt;int x;" style="shape=parallelogram;perimeter=parallelogramPerimeter;whiteSpace=wrap;html=1;fixedSize=1;" vertex="1" parent="1">
          <mxGeometry x="35" y="1800" width="130" height="50" as="geometry" />
        </mxCell>
        <mxCell id="unVaKgMmHh477C6XNQjO-108" style="edgeStyle=orthogonalEdgeStyle;rounded=0;orthogonalLoop=1;jettySize=auto;html=1;exitX=0.5;exitY=1;exitDx=0;exitDy=0;exitPerimeter=0;entryX=0.5;entryY=0;entryDx=0;entryDy=0;" edge="1" parent="1" source="unVaKgMmHh477C6XNQjO-109" target="unVaKgMmHh477C6XNQjO-107">
          <mxGeometry relative="1" as="geometry" />
        </mxCell>
        <mxCell id="unVaKgMmHh477C6XNQjO-109" value="Start" style="strokeWidth=2;html=1;shape=mxgraph.flowchart.start_1;whiteSpace=wrap;" vertex="1" parent="1">
          <mxGeometry x="50" y="1740" width="100" height="40" as="geometry" />
        </mxCell>
        <mxCell id="unVaKgMmHh477C6XNQjO-110" style="edgeStyle=orthogonalEdgeStyle;rounded=0;orthogonalLoop=1;jettySize=auto;html=1;exitX=0.5;exitY=1;exitDx=0;exitDy=0;exitPerimeter=0;entryX=0.5;entryY=0;entryDx=0;entryDy=0;" edge="1" parent="1" source="unVaKgMmHh477C6XNQjO-111" target="unVaKgMmHh477C6XNQjO-115">
          <mxGeometry relative="1" as="geometry" />
        </mxCell>
        <mxCell id="unVaKgMmHh477C6XNQjO-111" value="search&lt;br&gt;int i: 0, 1, q-&amp;gt;num" style="strokeWidth=2;html=1;shape=mxgraph.flowchart.loop_limit;whiteSpace=wrap;" vertex="1" parent="1">
          <mxGeometry x="47.5" y="1880" width="100" height="50" as="geometry" />
        </mxCell>
        <mxCell id="unVaKgMmHh477C6XNQjO-112" value="Y" style="edgeStyle=orthogonalEdgeStyle;rounded=0;orthogonalLoop=1;jettySize=auto;html=1;exitX=1;exitY=0.5;exitDx=0;exitDy=0;entryX=0;entryY=0.5;entryDx=0;entryDy=0;entryPerimeter=0;" edge="1" parent="1" source="unVaKgMmHh477C6XNQjO-115" target="unVaKgMmHh477C6XNQjO-116">
          <mxGeometry relative="1" as="geometry" />
        </mxCell>
        <mxCell id="unVaKgMmHh477C6XNQjO-113" value="N" style="edgeStyle=orthogonalEdgeStyle;rounded=0;orthogonalLoop=1;jettySize=auto;html=1;exitX=0;exitY=0.5;exitDx=0;exitDy=0;" edge="1" parent="1" source="unVaKgMmHh477C6XNQjO-115">
          <mxGeometry x="-0.2221" relative="1" as="geometry">
            <mxPoint x="90" y="1940" as="targetPoint" />
            <Array as="points">
              <mxPoint x="10" y="1995" />
              <mxPoint x="10" y="1940" />
            </Array>
            <mxPoint as="offset" />
          </mxGeometry>
        </mxCell>
        <mxCell id="unVaKgMmHh477C6XNQjO-114" style="edgeStyle=orthogonalEdgeStyle;rounded=0;orthogonalLoop=1;jettySize=auto;html=1;exitX=0.5;exitY=1;exitDx=0;exitDy=0;entryX=0.5;entryY=1;entryDx=0;entryDy=0;entryPerimeter=0;" edge="1" parent="1" source="unVaKgMmHh477C6XNQjO-115" target="unVaKgMmHh477C6XNQjO-118">
          <mxGeometry relative="1" as="geometry">
            <mxPoint x="94.79310344827593" y="2110" as="targetPoint" />
          </mxGeometry>
        </mxCell>
        <mxCell id="unVaKgMmHh477C6XNQjO-115" value="q-&amp;gt;que[(i + q-&amp;gt;front) % q-&amp;gt;max] == x" style="rhombus;whiteSpace=wrap;html=1;" vertex="1" parent="1">
          <mxGeometry x="40" y="1950" width="110" height="80" as="geometry" />
        </mxCell>
        <mxCell id="unVaKgMmHh477C6XNQjO-116" value="return i;" style="strokeWidth=2;html=1;shape=mxgraph.flowchart.document2;whiteSpace=wrap;size=0.25;" vertex="1" parent="1">
          <mxGeometry x="187" y="1970" width="75" height="40" as="geometry" />
        </mxCell>
        <mxCell id="unVaKgMmHh477C6XNQjO-117" style="edgeStyle=orthogonalEdgeStyle;rounded=0;orthogonalLoop=1;jettySize=auto;html=1;exitX=0.5;exitY=0;exitDx=0;exitDy=0;exitPerimeter=0;entryX=0.5;entryY=0;entryDx=0;entryDy=0;entryPerimeter=0;" edge="1" parent="1" source="unVaKgMmHh477C6XNQjO-118" target="unVaKgMmHh477C6XNQjO-119">
          <mxGeometry relative="1" as="geometry" />
        </mxCell>
        <mxCell id="unVaKgMmHh477C6XNQjO-118" value="search" style="strokeWidth=2;html=1;shape=mxgraph.flowchart.loop_limit;whiteSpace=wrap;rotation=-180;" vertex="1" parent="1">
          <mxGeometry x="45" y="2050" width="100" height="50" as="geometry" />
        </mxCell>
        <mxCell id="unVaKgMmHh477C6XNQjO-119" value="return -1;" style="strokeWidth=2;html=1;shape=mxgraph.flowchart.document2;whiteSpace=wrap;size=0.25;" vertex="1" parent="1">
          <mxGeometry x="57.5" y="2130" width="75" height="40" as="geometry" />
        </mxCell>
        <mxCell id="unVaKgMmHh477C6XNQjO-120" style="edgeStyle=orthogonalEdgeStyle;rounded=0;orthogonalLoop=1;jettySize=auto;html=1;exitX=0.501;exitY=0.916;exitDx=0;exitDy=0;exitPerimeter=0;entryX=0.5;entryY=0;entryDx=0;entryDy=0;entryPerimeter=0;" edge="1" parent="1" source="unVaKgMmHh477C6XNQjO-119" target="unVaKgMmHh477C6XNQjO-122">
          <mxGeometry relative="1" as="geometry" />
        </mxCell>
        <mxCell id="unVaKgMmHh477C6XNQjO-121" style="edgeStyle=orthogonalEdgeStyle;rounded=0;orthogonalLoop=1;jettySize=auto;html=1;exitX=0.551;exitY=0.86;exitDx=0;exitDy=0;exitPerimeter=0;entryX=1;entryY=0.5;entryDx=0;entryDy=0;entryPerimeter=0;" edge="1" parent="1" source="unVaKgMmHh477C6XNQjO-116" target="unVaKgMmHh477C6XNQjO-122">
          <mxGeometry relative="1" as="geometry">
            <Array as="points">
              <mxPoint x="221" y="2230" />
            </Array>
          </mxGeometry>
        </mxCell>
        <mxCell id="unVaKgMmHh477C6XNQjO-122" value="End" style="strokeWidth=2;html=1;shape=mxgraph.flowchart.start_1;whiteSpace=wrap;" vertex="1" parent="1">
          <mxGeometry x="45" y="2210" width="100" height="40" as="geometry" />
        </mxCell>
        <mxCell id="unVaKgMmHh477C6XNQjO-123" style="edgeStyle=orthogonalEdgeStyle;rounded=0;orthogonalLoop=1;jettySize=auto;html=1;exitX=0.5;exitY=1;exitDx=0;exitDy=0;exitPerimeter=0;entryX=0.5;entryY=0;entryDx=0;entryDy=0;" edge="1" parent="1" source="unVaKgMmHh477C6XNQjO-124" target="unVaKgMmHh477C6XNQjO-126">
          <mxGeometry relative="1" as="geometry" />
        </mxCell>
        <mxCell id="unVaKgMmHh477C6XNQjO-124" value="Start" style="strokeWidth=2;html=1;shape=mxgraph.flowchart.start_1;whiteSpace=wrap;" vertex="1" parent="1">
          <mxGeometry x="360" y="1740" width="100" height="40" as="geometry" />
        </mxCell>
        <mxCell id="unVaKgMmHh477C6XNQjO-125" style="edgeStyle=orthogonalEdgeStyle;rounded=0;orthogonalLoop=1;jettySize=auto;html=1;exitX=0.5;exitY=1;exitDx=0;exitDy=0;" edge="1" parent="1" source="unVaKgMmHh477C6XNQjO-126" target="unVaKgMmHh477C6XNQjO-128">
          <mxGeometry relative="1" as="geometry" />
        </mxCell>
        <mxCell id="unVaKgMmHh477C6XNQjO-126" value="const IntQueue* q" style="shape=parallelogram;perimeter=parallelogramPerimeter;whiteSpace=wrap;html=1;fixedSize=1;" vertex="1" parent="1">
          <mxGeometry x="345" y="1800" width="130" height="50" as="geometry" />
        </mxCell>
        <mxCell id="unVaKgMmHh477C6XNQjO-127" style="edgeStyle=orthogonalEdgeStyle;rounded=0;orthogonalLoop=1;jettySize=auto;html=1;exitX=0.5;exitY=1;exitDx=0;exitDy=0;exitPerimeter=0;" edge="1" parent="1" source="unVaKgMmHh477C6XNQjO-128" target="unVaKgMmHh477C6XNQjO-129">
          <mxGeometry relative="1" as="geometry" />
        </mxCell>
        <mxCell id="unVaKgMmHh477C6XNQjO-128" value="print&lt;br&gt;int i: 0, 1, q-&amp;gt;num" style="strokeWidth=2;html=1;shape=mxgraph.flowchart.loop_limit;whiteSpace=wrap;" vertex="1" parent="1">
          <mxGeometry x="360" y="1880" width="100" height="50" as="geometry" />
        </mxCell>
        <mxCell id="unVaKgMmHh477C6XNQjO-129" value="printf(&quot;%d &quot;, q-&amp;gt;que[(i + q-&amp;gt;front) % q-&amp;gt;max]);" style="strokeWidth=2;html=1;shape=mxgraph.flowchart.document2;whiteSpace=wrap;size=0.25;" vertex="1" parent="1">
          <mxGeometry x="280" y="1960" width="260" height="50" as="geometry" />
        </mxCell>
        <mxCell id="unVaKgMmHh477C6XNQjO-130" style="edgeStyle=orthogonalEdgeStyle;rounded=0;orthogonalLoop=1;jettySize=auto;html=1;exitX=0.498;exitY=0.844;exitDx=0;exitDy=0;exitPerimeter=0;entryX=0.5;entryY=1;entryDx=0;entryDy=0;entryPerimeter=0;" edge="1" parent="1" source="unVaKgMmHh477C6XNQjO-129" target="unVaKgMmHh477C6XNQjO-132">
          <mxGeometry relative="1" as="geometry" />
        </mxCell>
        <mxCell id="unVaKgMmHh477C6XNQjO-131" style="edgeStyle=orthogonalEdgeStyle;rounded=0;orthogonalLoop=1;jettySize=auto;html=1;exitX=0.5;exitY=0;exitDx=0;exitDy=0;exitPerimeter=0;entryX=0.5;entryY=0;entryDx=0;entryDy=0;entryPerimeter=0;" edge="1" parent="1" source="unVaKgMmHh477C6XNQjO-132" target="unVaKgMmHh477C6XNQjO-134">
          <mxGeometry relative="1" as="geometry" />
        </mxCell>
        <mxCell id="unVaKgMmHh477C6XNQjO-132" value="print" style="strokeWidth=2;html=1;shape=mxgraph.flowchart.loop_limit;whiteSpace=wrap;rotation=-180;" vertex="1" parent="1">
          <mxGeometry x="360" y="2040" width="100" height="40" as="geometry" />
        </mxCell>
        <mxCell id="unVaKgMmHh477C6XNQjO-133" style="edgeStyle=orthogonalEdgeStyle;rounded=0;orthogonalLoop=1;jettySize=auto;html=1;exitX=0.5;exitY=0;exitDx=0;exitDy=0;exitPerimeter=0;" edge="1" parent="1" source="unVaKgMmHh477C6XNQjO-132" target="unVaKgMmHh477C6XNQjO-132">
          <mxGeometry relative="1" as="geometry" />
        </mxCell>
        <mxCell id="unVaKgMmHh477C6XNQjO-134" value="printf(&quot;\n\n&quot;);" style="strokeWidth=2;html=1;shape=mxgraph.flowchart.document2;whiteSpace=wrap;size=0.25;" vertex="1" parent="1">
          <mxGeometry x="372.5" y="2110" width="75" height="40" as="geometry" />
        </mxCell>
        <mxCell id="unVaKgMmHh477C6XNQjO-135" style="edgeStyle=orthogonalEdgeStyle;rounded=0;orthogonalLoop=1;jettySize=auto;html=1;exitX=0.515;exitY=0.939;exitDx=0;exitDy=0;exitPerimeter=0;entryX=0.5;entryY=0;entryDx=0;entryDy=0;entryPerimeter=0;" edge="1" parent="1" source="unVaKgMmHh477C6XNQjO-134" target="unVaKgMmHh477C6XNQjO-136">
          <mxGeometry relative="1" as="geometry" />
        </mxCell>
        <mxCell id="unVaKgMmHh477C6XNQjO-136" value="End" style="strokeWidth=2;html=1;shape=mxgraph.flowchart.start_1;whiteSpace=wrap;" vertex="1" parent="1">
          <mxGeometry x="360" y="2180" width="100" height="40" as="geometry" />
        </mxCell>
        <mxCell id="unVaKgMmHh477C6XNQjO-137" style="edgeStyle=orthogonalEdgeStyle;rounded=0;orthogonalLoop=1;jettySize=auto;html=1;exitX=0.5;exitY=1;exitDx=0;exitDy=0;entryX=0.5;entryY=0;entryDx=0;entryDy=0;" edge="1" parent="1" source="unVaKgMmHh477C6XNQjO-138" target="unVaKgMmHh477C6XNQjO-143">
          <mxGeometry relative="1" as="geometry" />
        </mxCell>
        <mxCell id="unVaKgMmHh477C6XNQjO-138" value="IntQueue* q" style="shape=parallelogram;perimeter=parallelogramPerimeter;whiteSpace=wrap;html=1;fixedSize=1;" vertex="1" parent="1">
          <mxGeometry x="670" y="1800" width="100" height="40" as="geometry" />
        </mxCell>
        <mxCell id="unVaKgMmHh477C6XNQjO-139" style="edgeStyle=orthogonalEdgeStyle;rounded=0;orthogonalLoop=1;jettySize=auto;html=1;exitX=0.5;exitY=1;exitDx=0;exitDy=0;exitPerimeter=0;entryX=0.5;entryY=0;entryDx=0;entryDy=0;" edge="1" parent="1" source="unVaKgMmHh477C6XNQjO-140" target="unVaKgMmHh477C6XNQjO-138">
          <mxGeometry relative="1" as="geometry" />
        </mxCell>
        <mxCell id="unVaKgMmHh477C6XNQjO-140" value="Start" style="strokeWidth=2;html=1;shape=mxgraph.flowchart.start_1;whiteSpace=wrap;" vertex="1" parent="1">
          <mxGeometry x="670" y="1740" width="100" height="40" as="geometry" />
        </mxCell>
        <mxCell id="unVaKgMmHh477C6XNQjO-141" style="edgeStyle=orthogonalEdgeStyle;rounded=0;orthogonalLoop=1;jettySize=auto;html=1;exitX=0.5;exitY=1;exitDx=0;exitDy=0;entryX=0.5;entryY=0;entryDx=0;entryDy=0;" edge="1" parent="1" source="unVaKgMmHh477C6XNQjO-143" target="unVaKgMmHh477C6XNQjO-145">
          <mxGeometry relative="1" as="geometry" />
        </mxCell>
        <mxCell id="unVaKgMmHh477C6XNQjO-142" style="edgeStyle=orthogonalEdgeStyle;rounded=0;orthogonalLoop=1;jettySize=auto;html=1;exitX=1;exitY=0.5;exitDx=0;exitDy=0;entryX=0;entryY=0.5;entryDx=0;entryDy=0;" edge="1" parent="1" source="unVaKgMmHh477C6XNQjO-143" target="unVaKgMmHh477C6XNQjO-147">
          <mxGeometry relative="1" as="geometry" />
        </mxCell>
        <mxCell id="unVaKgMmHh477C6XNQjO-143" value="q-&amp;gt;que != NULL" style="rhombus;whiteSpace=wrap;html=1;" vertex="1" parent="1">
          <mxGeometry x="665" y="1865" width="110" height="65" as="geometry" />
        </mxCell>
        <mxCell id="unVaKgMmHh477C6XNQjO-144" style="edgeStyle=orthogonalEdgeStyle;rounded=0;orthogonalLoop=1;jettySize=auto;html=1;exitX=0.5;exitY=1;exitDx=0;exitDy=0;" edge="1" parent="1" source="unVaKgMmHh477C6XNQjO-145" target="unVaKgMmHh477C6XNQjO-148">
          <mxGeometry relative="1" as="geometry" />
        </mxCell>
        <mxCell id="unVaKgMmHh477C6XNQjO-145" value="&lt;div&gt;q-&amp;gt;max = 0;&lt;/div&gt;&lt;div&gt;q-&amp;gt;num = 0;&lt;span style=&quot;&quot;&gt;&lt;/span&gt;&lt;/div&gt;" style="rounded=0;whiteSpace=wrap;html=1;" vertex="1" parent="1">
          <mxGeometry x="670" y="1990" width="100" height="40" as="geometry" />
        </mxCell>
        <mxCell id="unVaKgMmHh477C6XNQjO-146" style="edgeStyle=orthogonalEdgeStyle;rounded=0;orthogonalLoop=1;jettySize=auto;html=1;exitX=0.5;exitY=1;exitDx=0;exitDy=0;" edge="1" parent="1" source="unVaKgMmHh477C6XNQjO-147">
          <mxGeometry relative="1" as="geometry">
            <mxPoint x="720" y="1960" as="targetPoint" />
            <Array as="points">
              <mxPoint x="847" y="1960" />
            </Array>
          </mxGeometry>
        </mxCell>
        <mxCell id="unVaKgMmHh477C6XNQjO-147" value="free(q-&amp;gt;que);" style="rounded=0;whiteSpace=wrap;html=1;" vertex="1" parent="1">
          <mxGeometry x="807" y="1882.5" width="80" height="30" as="geometry" />
        </mxCell>
        <mxCell id="unVaKgMmHh477C6XNQjO-148" value="End" style="strokeWidth=2;html=1;shape=mxgraph.flowchart.start_1;whiteSpace=wrap;" vertex="1" parent="1">
          <mxGeometry x="670" y="2055" width="100" height="40" as="geometry" />
        </mxCell>
        <mxCell id="unVaKgMmHh477C6XNQjO-152" value="Y" style="edgeStyle=orthogonalEdgeStyle;rounded=0;orthogonalLoop=1;jettySize=auto;html=1;exitX=0.5;exitY=1;exitDx=0;exitDy=0;entryX=0.5;entryY=0;entryDx=0;entryDy=0;" edge="1" parent="1" source="unVaKgMmHh477C6XNQjO-149" target="unVaKgMmHh477C6XNQjO-151">
          <mxGeometry relative="1" as="geometry" />
        </mxCell>
        <mxCell id="unVaKgMmHh477C6XNQjO-153" value="N" style="edgeStyle=orthogonalEdgeStyle;rounded=0;orthogonalLoop=1;jettySize=auto;html=1;exitX=0;exitY=0.5;exitDx=0;exitDy=0;entryX=-0.01;entryY=0.603;entryDx=0;entryDy=0;entryPerimeter=0;" edge="1" parent="1" source="unVaKgMmHh477C6XNQjO-149" target="unVaKgMmHh477C6XNQjO-27">
          <mxGeometry relative="1" as="geometry" />
        </mxCell>
        <mxCell id="unVaKgMmHh477C6XNQjO-149" value="q-&gt;rear == q-&gt;max" style="rhombus;whiteSpace=wrap;html=1;" vertex="1" parent="1">
          <mxGeometry x="465" y="380" width="130" height="65" as="geometry" />
        </mxCell>
        <mxCell id="unVaKgMmHh477C6XNQjO-154" style="edgeStyle=orthogonalEdgeStyle;rounded=0;orthogonalLoop=1;jettySize=auto;html=1;exitX=0.5;exitY=1;exitDx=0;exitDy=0;entryX=0.5;entryY=0;entryDx=0;entryDy=0;" edge="1" parent="1" source="unVaKgMmHh477C6XNQjO-151" target="unVaKgMmHh477C6XNQjO-27">
          <mxGeometry relative="1" as="geometry" />
        </mxCell>
        <mxCell id="unVaKgMmHh477C6XNQjO-151" value="q-&amp;gt;rear = 0;" style="rounded=0;whiteSpace=wrap;html=1;" vertex="1" parent="1">
          <mxGeometry x="488.5" y="470" width="83" height="35" as="geometry" />
        </mxCell>
        <mxCell id="unVaKgMmHh477C6XNQjO-158" value="return 0;" style="shape=document;whiteSpace=wrap;html=1;boundedLbl=1;" vertex="1" parent="1">
          <mxGeometry x="476" y="1184" width="70" height="50" as="geometry" />
        </mxCell>
        <mxCell id="unVaKgMmHh477C6XNQjO-159" value="Y" style="edgeStyle=orthogonalEdgeStyle;rounded=0;orthogonalLoop=1;jettySize=auto;html=1;exitX=0.5;exitY=1;exitDx=0;exitDy=0;entryX=0.5;entryY=0;entryDx=0;entryDy=0;" edge="1" parent="1" source="unVaKgMmHh477C6XNQjO-161" target="unVaKgMmHh477C6XNQjO-163">
          <mxGeometry relative="1" as="geometry" />
        </mxCell>
        <mxCell id="unVaKgMmHh477C6XNQjO-160" value="N" style="edgeStyle=orthogonalEdgeStyle;rounded=0;orthogonalLoop=1;jettySize=auto;html=1;exitX=0;exitY=0.5;exitDx=0;exitDy=0;entryX=-0.01;entryY=0.603;entryDx=0;entryDy=0;entryPerimeter=0;" edge="1" parent="1" source="unVaKgMmHh477C6XNQjO-161" target="unVaKgMmHh477C6XNQjO-158">
          <mxGeometry relative="1" as="geometry" />
        </mxCell>
        <mxCell id="unVaKgMmHh477C6XNQjO-161" value="q-&amp;gt;front == q-&amp;gt;max" style="rhombus;whiteSpace=wrap;html=1;" vertex="1" parent="1">
          <mxGeometry x="446" y="1042" width="130" height="65" as="geometry" />
        </mxCell>
        <mxCell id="unVaKgMmHh477C6XNQjO-162" style="edgeStyle=orthogonalEdgeStyle;rounded=0;orthogonalLoop=1;jettySize=auto;html=1;exitX=0.5;exitY=1;exitDx=0;exitDy=0;entryX=0.5;entryY=0;entryDx=0;entryDy=0;" edge="1" parent="1" source="unVaKgMmHh477C6XNQjO-163" target="unVaKgMmHh477C6XNQjO-158">
          <mxGeometry relative="1" as="geometry" />
        </mxCell>
        <mxCell id="unVaKgMmHh477C6XNQjO-163" value="q-&amp;gt;front = 0;" style="rounded=0;whiteSpace=wrap;html=1;" vertex="1" parent="1">
          <mxGeometry x="469.5" y="1132" width="83" height="35" as="geometry" />
        </mxCell>
        <mxCell id="unVaKgMmHh477C6XNQjO-165" style="edgeStyle=orthogonalEdgeStyle;rounded=0;orthogonalLoop=1;jettySize=auto;html=1;exitX=0.534;exitY=0.847;exitDx=0;exitDy=0;exitPerimeter=0;entryX=1;entryY=0.5;entryDx=0;entryDy=0;entryPerimeter=0;" edge="1" parent="1" target="unVaKgMmHh477C6XNQjO-43">
          <mxGeometry relative="1" as="geometry">
            <Array as="points">
              <mxPoint x="649" y="1272" />
            </Array>
            <mxPoint x="649" y="886" as="sourcePoint" />
            <mxPoint x="561" y="1234" as="targetPoint" />
          </mxGeometry>
        </mxCell>
      </root>
    </mxGraphModel>
  </diagram>
</mxfile>
